<?xml version="1.0" encoding="UTF-8"?>
<svg id="Layer_1" xmlns="http://www.w3.org/2000/svg" version="1.1" viewBox="0 0 1920.05 412.01">
  <!-- Generator: Adobe Illustrator 29.3.1, SVG Export Plug-In . SVG Version: 2.1.0 Build 151)  -->
  <defs>
    <style>
      .st0 {
        fill: #004936;
      }
    </style>
  </defs>
  <g>
    <path class="st0" d="M189.08,185.75c22.14-22.12,30.25-52.93,24.36-81.44-27.5-1.79-55.6,7.78-76.62,28.78-12.3,12.28-20.67,26.99-25.15,42.58v-64.81c27.35,4.32,56.33-4.02,77.41-25.09,22.14-22.12,30.25-52.93,24.36-81.44-27.5-1.79-55.6,7.78-76.62,28.78-18.8,18.78-28.44,43.22-28.99,67.83h-.33c-.55-24.61-10.19-49.05-28.99-67.83C57.49,12.11,29.39,2.54,1.89,4.33c-5.89,28.51,2.22,59.32,24.36,81.44,21.16,21.14,50.27,29.47,77.71,25.04v65.91c-4.4-15.98-12.88-31.08-25.46-43.64-21.02-21-49.12-30.57-76.62-28.78-5.89,28.51,2.22,59.32,24.36,81.44,21.16,21.14,50.27,29.47,77.71,25.04v65.91c-4.4-15.98-12.88-31.08-25.46-43.64-21.02-21-49.12-30.57-76.62-28.78-5.89,28.51,2.22,59.32,24.36,81.44,21.16,21.14,50.27,29.47,77.71,25.04v65.91c-4.4-15.98-12.88-31.08-25.46-43.64-21.02-21-49.12-30.57-76.62-28.78-5.89,28.51,2.22,59.32,24.36,81.44,21.16,21.14,50.27,29.47,77.71,25.04v.02h7.52c27.41,4.39,56.46-3.95,77.58-25.06,22.14-22.12,30.25-52.93,24.36-81.44-27.5-1.79-55.6,7.78-76.62,28.78-12.3,12.28-20.67,26.99-25.15,42.58v-64.81c27.35,4.32,56.33-4.02,77.41-25.09,22.14-22.12,30.25-52.93,24.36-81.44-27.5-1.79-55.6,7.78-76.62,28.78-12.3,12.28-20.67,26.99-25.15,42.58v-64.81c27.35,4.32,56.33-4.02,77.41-25.09l.05.03Z"/>
    <path class="st0" d="M405.15,185.75c22.14-22.12,30.25-52.93,24.36-81.44-27.5-1.79-55.6,7.78-76.62,28.78-12.3,12.28-20.67,26.99-25.15,42.58v-64.81c27.35,4.32,56.33-4.02,77.41-25.09,22.14-22.12,30.25-52.93,24.36-81.44-27.5-1.79-55.6,7.78-76.62,28.78-18.8,18.78-28.44,43.22-28.99,67.83h-.33c-.55-24.61-10.19-49.05-28.99-67.83-21.02-21-49.12-30.57-76.62-28.78-5.89,28.51,2.22,59.32,24.36,81.44,21.16,21.14,50.27,29.47,77.71,25.04v65.91c-4.4-15.98-12.88-31.08-25.46-43.64-21.02-21-49.12-30.57-76.62-28.78-5.89,28.51,2.22,59.32,24.36,81.44,21.16,21.14,50.27,29.47,77.71,25.04v65.91c-4.4-15.98-12.88-31.08-25.46-43.64-21.02-21-49.12-30.57-76.62-28.78-5.89,28.51,2.22,59.32,24.36,81.44,21.16,21.14,50.27,29.47,77.71,25.04v65.91c-4.4-15.98-12.88-31.08-25.46-43.64-21.02-21-49.12-30.57-76.62-28.78-5.89,28.51,2.22,59.32,24.36,81.44,21.16,21.14,50.27,29.47,77.71,25.04v.02h7.52c27.41,4.39,56.46-3.95,77.58-25.06,22.14-22.12,30.25-52.93,24.36-81.44-27.5-1.79-55.6,7.78-76.62,28.78-12.3,12.28-20.67,26.99-25.15,42.58v-64.81c27.35,4.32,56.33-4.02,77.41-25.09,22.14-22.12,30.25-52.93,24.36-81.44-27.5-1.79-55.6,7.78-76.62,28.78-12.3,12.28-20.67,26.99-25.15,42.58v-64.81c27.35,4.32,56.33-4.02,77.41-25.09l.05.03Z"/>
  </g>
  <g>
    <g>
      <path class="st0" d="M587.42,206.48c-15.71,0-30.28-2.51-43.72-7.52-13.44-5.01-25.03-12.15-34.78-21.41-9.75-9.26-17.37-20.18-22.85-32.76-5.49-12.57-8.23-26.42-8.23-41.55s2.74-28.97,8.23-41.55c5.49-12.57,13.15-23.49,23-32.76,9.84-9.26,21.53-16.4,35.06-21.41,13.53-5.01,28.34-7.52,44.43-7.52,18.74,0,35.49,3.12,50.25,9.36s26.97,15.22,36.62,26.94l-35.77,32.33c-6.81-7.37-14.15-12.9-22-16.59-7.86-3.69-16.61-5.53-26.26-5.53-8.52,0-16.28,1.33-23.28,3.97-7,2.65-12.97,6.48-17.89,11.49-4.92,5.01-8.76,10.97-11.5,17.87-2.75,6.9-4.12,14.7-4.12,23.4s1.37,15.98,4.12,22.97c2.74,7,6.57,13,11.5,18.01,4.92,5.01,10.83,8.89,17.74,11.63s14.52,4.11,22.85,4.11,16.47-1.37,24.41-4.11c7.95-2.74,15.99-7.42,24.13-14.04l31.51,39.42c-11.36,8.13-24.51,14.37-39.46,18.72s-29.62,6.52-44,6.52h.01ZM670.89,181.24l-49.68-7.37v-74.88h49.68v82.25Z"/>
      <path class="st0" d="M729.65,205.07c-9.08,0-16.75-3.02-23-9.08-6.25-6.05-9.37-13.71-9.37-22.97s3.12-17.35,9.37-23.12,13.91-8.65,23-8.65,16.75,2.88,23,8.65,9.37,13.47,9.37,23.12-3.12,16.92-9.37,22.97-13.91,9.08-23,9.08Z"/>
      <path class="st0" d="M789.83,202.51V3.97h155.86v43.39h-100.21v111.75h103.91v43.39h-159.56ZM841.5,122.82v-41.98h92.27v41.98h-92.27Z"/>
      <path class="st0" d="M1003.6,205.07c-9.08,0-16.75-3.02-23-9.08-6.25-6.05-9.37-13.71-9.37-22.97s3.12-17.35,9.37-23.12,13.91-8.65,23-8.65,16.75,2.88,23,8.65c6.25,5.77,9.37,13.47,9.37,23.12s-3.12,16.92-9.37,22.97-13.91,9.08-23,9.08h0Z"/>
      <path class="st0" d="M1048.74,202.51L1136.46,3.97h55.36l88.01,198.54h-58.48l-68.7-171.02h22.14l-68.7,171.02h-57.35ZM1096.71,163.94l14.48-41.41h97.09l14.48,41.41h-126.05,0Z"/>
      <path class="st0" d="M1324.68,205.07c-9.08,0-16.75-3.02-23-9.08-6.25-6.05-9.37-13.71-9.37-22.97s3.12-17.35,9.37-23.12,13.91-8.65,23-8.65,16.75,2.88,23,8.65,9.37,13.47,9.37,23.12-3.12,16.92-9.37,22.97-13.91,9.08-23,9.08Z"/>
      <path class="st0" d="M1384.86,202.51V3.97h88.86c28.96,0,51.24,6.57,66.86,19.71,15.61,13.14,23.42,31.06,23.42,53.75,0,14.94-3.6,27.84-10.79,38.71-7.19,10.88-17.37,19.19-30.52,24.96-13.16,5.77-28.82,8.65-46.98,8.65h-59.62l24.98-23.54v76.29h-56.21ZM1441.07,132.18l-24.98-25.81h56.21c11.73,0,20.48-2.55,26.26-7.66,5.77-5.11,8.66-12.2,8.66-21.27s-2.89-16.45-8.66-21.56c-5.78-5.11-14.53-7.66-26.26-7.66h-56.21l24.98-25.81v109.76h0ZM1507.79,202.51l-49.4-72.32h59.9l49.68,72.32h-60.19,0Z"/>
      <path class="st0" d="M1615.09,205.07c-9.08,0-16.75-3.02-23-9.08-6.25-6.05-9.37-13.71-9.37-22.97s3.12-17.35,9.37-23.12,13.91-8.65,23-8.65,16.75,2.88,23,8.65,9.37,13.47,9.37,23.12-3.12,16.92-9.37,22.97-13.91,9.08-23,9.08Z"/>
      <path class="st0" d="M1747.95,206.48c-16.28,0-31.94-2.03-46.98-6.1s-27.3-9.31-36.76-15.74l18.45-41.41c8.89,5.67,19.16,10.35,30.8,14.04s23.23,5.53,34.78,5.53c7.76,0,14-.71,18.74-2.13,4.73-1.42,8.18-3.31,10.36-5.67,2.17-2.36,3.26-5.15,3.26-8.37,0-4.54-2.08-8.13-6.25-10.78s-9.56-4.82-16.18-6.52c-6.63-1.7-13.96-3.4-22-5.11-8.05-1.7-16.09-3.87-24.13-6.52-8.05-2.65-15.38-6.1-22-10.35-6.63-4.25-12.02-9.83-16.18-16.73-4.17-6.9-6.25-15.64-6.25-26.24,0-11.91,3.26-22.69,9.79-32.33s16.32-17.39,29.38-23.26c13.06-5.86,29.33-8.79,48.83-8.79,13.06,0,25.88,1.47,38.47,4.4,12.58,2.93,23.8,7.23,33.64,12.9l-17.32,41.69c-9.47-5.11-18.83-8.93-28.11-11.49-9.28-2.55-18.27-3.83-26.97-3.83-7.76,0-14.01.81-18.74,2.41-4.73,1.61-8.14,3.74-10.22,6.38-2.08,2.65-3.12,5.67-3.12,9.08,0,4.35,2.03,7.8,6.1,10.35s9.46,4.64,16.18,6.24c6.72,1.61,14.1,3.26,22.14,4.96,8.04,1.7,16.08,3.83,24.13,6.38,8.04,2.55,15.37,5.96,22,10.21,6.62,4.25,11.97,9.83,16.04,16.73,4.07,6.9,6.1,15.55,6.1,25.95,0,11.54-3.26,22.17-9.79,31.91s-16.28,17.54-29.24,23.4c-12.97,5.86-29.29,8.79-48.97,8.79l.02.02Z"/>
      <path class="st0" d="M1887.62,205.07c-9.08,0-16.75-3.02-23-9.08-6.25-6.05-9.37-13.71-9.37-22.97s3.12-17.35,9.37-23.12,13.91-8.65,23-8.65,16.75,2.88,23,8.65,9.37,13.47,9.37,23.12-3.12,16.92-9.37,22.97-13.91,9.08-23,9.08Z"/>
    </g>
    <g>
      <path class="st0" d="M508.7,309.25c-4.44,0-8.54-.74-12.31-2.23-3.77-1.49-7.04-3.58-9.82-6.28s-4.93-5.85-6.45-9.48c-1.52-3.62-2.28-7.59-2.28-11.92s.76-8.3,2.28-11.92c1.52-3.62,3.68-6.78,6.49-9.48s6.08-4.79,9.82-6.28c3.74-1.49,7.85-2.23,12.35-2.23s8.23.67,11.89,2.02c3.65,1.35,6.77,3.37,9.36,6.07l-2.7,2.86c-2.59-2.53-5.41-4.32-8.47-5.39s-6.39-1.6-9.99-1.6c-3.82,0-7.36.65-10.62,1.94s-6.1,3.12-8.52,5.48c-2.42,2.36-4.29,5.11-5.61,8.25-1.32,3.15-1.98,6.57-1.98,10.28s.66,7.13,1.98,10.28,3.19,5.9,5.61,8.26c2.42,2.36,5.25,4.18,8.52,5.47,3.26,1.29,6.8,1.94,10.62,1.94,3.48,0,6.79-.53,9.91-1.6s5.97-2.83,8.56-5.31l2.44,3.29c-2.64,2.53-5.8,4.42-9.49,5.69-3.68,1.26-7.55,1.9-11.59,1.9h0ZM529.78,301.67l-4.13-.51v-21.56h4.13v22.07Z"/>
      <path class="st0" d="M548.66,308.83v-58.96h4.3v55.09h33.98v3.87h-38.28Z"/>
      <path class="st0" d="M621.85,309.25c-4.38,0-8.45-.74-12.18-2.23-3.74-1.49-7-3.59-9.78-6.32-2.78-2.72-4.93-5.9-6.45-9.52s-2.28-7.57-2.28-11.84.76-8.21,2.28-11.84c1.52-3.62,3.67-6.79,6.45-9.52,2.78-2.72,6.04-4.83,9.78-6.32,3.74-1.49,7.8-2.23,12.18-2.23s8.44.75,12.18,2.23c3.74,1.49,6.98,3.58,9.74,6.28,2.75,2.7,4.9,5.85,6.45,9.48,1.54,3.62,2.32,7.6,2.32,11.92s-.77,8.3-2.32,11.92c-1.55,3.62-3.7,6.78-6.45,9.48s-6,4.79-9.74,6.28-7.8,2.23-12.18,2.23h0ZM621.85,305.29c3.76,0,7.25-.64,10.46-1.94,3.2-1.29,5.99-3.12,8.35-5.47,2.36-2.36,4.2-5.11,5.52-8.26,1.32-3.14,1.98-6.57,1.98-10.28s-.66-7.2-1.98-10.32-3.16-5.85-5.52-8.21c-2.36-2.36-5.14-4.18-8.35-5.48-3.2-1.29-6.69-1.94-10.46-1.94s-7.25.65-10.46,1.94c-3.2,1.29-6,3.12-8.39,5.48-2.39,2.36-4.24,5.1-5.56,8.21-1.32,3.12-1.98,6.56-1.98,10.32s.66,7.13,1.98,10.28,3.17,5.9,5.56,8.26c2.39,2.36,5.19,4.18,8.39,5.47s6.69,1.94,10.46,1.94Z"/>
      <path class="st0" d="M667.47,308.83v-58.96h24.62c6.35,0,11.33,1.29,14.92,3.87,3.6,2.58,5.4,6.32,5.4,11.2,0,3.2-.76,5.9-2.28,8.09s-3.61,3.83-6.28,4.93c-2.67,1.09-5.66,1.64-8.98,1.64l1.52-1.68c4.05,0,7.5.59,10.37,1.77s5.04,2.89,6.53,5.14c1.49,2.25,2.23,5.05,2.23,8.42,0,4.94-1.8,8.77-5.4,11.5-3.6,2.73-9.05,4.09-16.36,4.09h-26.31.02ZM671.77,305.12h22.01c5.68,0,10-.97,12.98-2.91s4.47-5.04,4.47-9.31-1.49-7.29-4.47-9.22c-2.98-1.94-7.31-2.91-12.98-2.91h-22.51v-3.71h20.66c5.11,0,9.08-.98,11.89-2.95s4.22-4.91,4.22-8.85-1.41-6.79-4.22-8.76c-2.81-1.96-6.77-2.95-11.89-2.95h-20.15v51.57Z"/>
      <path class="st0" d="M720.42,308.83l27.15-58.96h4.3l27.15,58.96h-4.64l-25.63-56.27h1.85l-25.55,56.27h-4.64.01ZM730.37,292.23l1.43-3.62h35.33l1.43,3.62h-38.2.01Z"/>
      <path class="st0" d="M789.72,308.83v-58.96h4.3v55.09h33.98v3.87h-38.28,0Z"/>
      <path class="st0" d="M860.72,308.83v-58.96h39.46v3.87h-35.16v51.21h36.42v3.87h-40.72ZM864.51,280.78v-3.79h31.96v3.79h-31.96Z"/>
      <path class="st0" d="M917.12,308.83v-58.96h39.46v3.87h-35.16v55.09h-4.3ZM920.92,282.8v-3.88h31.96v3.88h-31.96Z"/>
      <path class="st0" d="M970.32,308.83v-58.96h39.46v3.87h-35.16v55.09h-4.3ZM974.12,282.8v-3.88h31.96v3.88h-31.96Z"/>
      <path class="st0" d="M1023.53,308.83v-58.96h4.3v58.96h-4.3Z"/>
      <path class="st0" d="M1073.36,309.25c-4.39,0-8.45-.74-12.18-2.23-3.74-1.49-6.98-3.58-9.74-6.28s-4.89-5.85-6.41-9.48c-1.52-3.62-2.28-7.59-2.28-11.92s.76-8.3,2.28-11.92c1.52-3.62,3.67-6.78,6.45-9.48,2.78-2.7,6.03-4.79,9.74-6.28s7.76-2.23,12.14-2.23,8.05.67,11.68,2.02c3.63,1.35,6.73,3.4,9.32,6.15l-2.7,2.78c-2.53-2.47-5.33-4.25-8.39-5.35s-6.31-1.64-9.74-1.64c-3.77,0-7.27.65-10.5,1.94s-6.04,3.12-8.43,5.48c-2.39,2.36-4.24,5.11-5.56,8.25-1.32,3.15-1.98,6.57-1.98,10.28s.66,7.13,1.98,10.28,3.17,5.9,5.56,8.26c2.39,2.36,5.2,4.18,8.43,5.47,3.23,1.29,6.73,1.94,10.5,1.94,3.43,0,6.67-.55,9.74-1.64,3.06-1.09,5.86-2.91,8.39-5.43l2.7,2.78c-2.59,2.75-5.69,4.82-9.32,6.19-3.63,1.38-7.52,2.06-11.68,2.06h0Z"/>
      <path class="st0" d="M1107.93,308.83v-58.96h4.3v58.96h-4.3Z"/>
      <path class="st0" d="M1132.8,308.83v-58.96h39.46v3.87h-35.16v51.21h36.42v3.87h-40.72ZM1136.59,280.78v-3.79h31.96v3.79h-31.96Z"/>
      <path class="st0" d="M1189.21,308.83v-58.96h3.63l42.07,53.66h-1.94v-53.66h4.3v58.96h-3.54l-42.16-53.66h1.94v53.66h-4.3,0Z"/>
      <path class="st0" d="M1269.14,308.83v-55.09h-21.25v-3.87h46.8v3.87h-21.25v55.09h-4.3Z"/>
      <path class="st0" d="M1317.11,308.83l27.15-58.96h4.3l27.15,58.96h-4.64l-25.63-56.27h1.85l-25.55,56.27h-4.64.01ZM1327.06,292.23l1.43-3.62h35.33l1.43,3.62h-38.2,0Z"/>
      <path class="st0" d="M1410.79,309.25c-4.44,0-8.55-.74-12.31-2.23-3.77-1.49-7.04-3.58-9.82-6.28-2.78-2.7-4.93-5.85-6.45-9.48-1.52-3.62-2.28-7.59-2.28-11.92s.76-8.3,2.28-11.92c1.52-3.62,3.68-6.78,6.49-9.48s6.08-4.79,9.82-6.28,7.85-2.23,12.35-2.23,8.23.67,11.89,2.02c3.65,1.35,6.77,3.37,9.36,6.07l-2.7,2.86c-2.59-2.53-5.41-4.32-8.47-5.39-3.06-1.07-6.4-1.6-9.99-1.6-3.82,0-7.37.65-10.62,1.94-3.26,1.29-6.1,3.12-8.52,5.48-2.42,2.36-4.29,5.11-5.61,8.25-1.32,3.15-1.98,6.57-1.98,10.28s.66,7.13,1.98,10.28,3.19,5.9,5.61,8.26c2.42,2.36,5.25,4.18,8.52,5.47,3.26,1.29,6.8,1.94,10.62,1.94,3.48,0,6.79-.53,9.91-1.6s5.97-2.83,8.56-5.31l2.44,3.29c-2.64,2.53-5.8,4.42-9.48,5.69-3.68,1.26-7.55,1.9-11.59,1.9h-.01ZM1431.86,301.67l-4.13-.51v-21.56h4.13v22.07Z"/>
      <path class="st0" d="M1450.75,308.83v-58.96h21.16c7.42,0,13.24,1.74,17.45,5.22,4.22,3.48,6.32,8.37,6.32,14.66,0,4.1-.96,7.62-2.87,10.57s-4.64,5.22-8.18,6.82-7.79,2.4-12.73,2.4h-18.8l1.94-2.02v21.31h-4.3.01ZM1455.05,287.77l-1.94-2.02h18.8c6.35,0,11.17-1.4,14.46-4.21,3.29-2.81,4.93-6.74,4.93-11.79s-1.64-9.06-4.93-11.84-8.11-4.17-14.46-4.17h-18.8l1.94-2.11v36.14h0ZM1491.73,308.83l-15.35-21.4h4.89l15.34,21.4h-4.89.01Z"/>
      <path class="st0" d="M1511.46,308.83v-58.96h4.3v58.96h-4.3Z"/>
      <path class="st0" d="M1561.29,309.25c-4.38,0-8.45-.74-12.18-2.23-3.74-1.49-6.99-3.58-9.74-6.28-2.76-2.7-4.89-5.85-6.41-9.48-1.52-3.62-2.28-7.59-2.28-11.92s.76-8.3,2.28-11.92c1.52-3.62,3.67-6.78,6.45-9.48,2.78-2.7,6.03-4.79,9.74-6.28s7.76-2.23,12.14-2.23,8.05.67,11.68,2.02c3.63,1.35,6.73,3.4,9.32,6.15l-2.7,2.78c-2.53-2.47-5.33-4.25-8.39-5.35-3.07-1.1-6.31-1.64-9.74-1.64-3.77,0-7.26.65-10.5,1.94-3.23,1.29-6.04,3.12-8.43,5.48-2.39,2.36-4.24,5.11-5.56,8.25-1.32,3.15-1.98,6.57-1.98,10.28s.66,7.13,1.98,10.28,3.17,5.9,5.56,8.26c2.39,2.36,5.2,4.18,8.43,5.47,3.23,1.29,6.73,1.94,10.5,1.94,3.43,0,6.67-.55,9.74-1.64,3.06-1.09,5.86-2.91,8.39-5.43l2.7,2.78c-2.59,2.75-5.69,4.82-9.32,6.19-3.63,1.38-7.52,2.06-11.68,2.06h0Z"/>
      <path class="st0" d="M1618.96,309.25c-7.31,0-13.07-2.13-17.29-6.4-4.22-4.27-6.32-10.61-6.32-19.04v-33.95h4.3v33.78c0,7.36,1.69,12.8,5.06,16.34,3.37,3.54,8.15,5.31,14.33,5.31s10.88-1.77,14.25-5.31,5.06-8.98,5.06-16.34v-33.78h4.3v33.95c0,8.42-2.11,14.77-6.32,19.04-4.22,4.27-10.01,6.4-17.37,6.4h0Z"/>
      <path class="st0" d="M1662.72,308.83v-58.96h4.3v55.09h33.98v3.87h-38.28Z"/>
      <path class="st0" d="M1716.77,308.83v-55.09h-21.25v-3.87h46.8v3.87h-21.25v55.09h-4.3Z"/>
      <path class="st0" d="M1774.86,309.25c-7.31,0-13.07-2.13-17.29-6.4-4.22-4.27-6.32-10.61-6.32-19.04v-33.95h4.3v33.78c0,7.36,1.69,12.8,5.06,16.34,3.37,3.54,8.15,5.31,14.33,5.31s10.88-1.77,14.25-5.31,5.06-8.98,5.06-16.34v-33.78h4.3v33.95c0,8.42-2.11,14.77-6.32,19.04-4.22,4.27-10.01,6.4-17.37,6.4h0Z"/>
      <path class="st0" d="M1818.62,308.83v-58.96h21.16c7.42,0,13.24,1.74,17.45,5.22,4.22,3.48,6.32,8.37,6.32,14.66,0,4.1-.96,7.62-2.87,10.57s-4.64,5.22-8.18,6.82-7.79,2.4-12.73,2.4h-18.8l1.94-2.02v21.31h-4.3.01ZM1822.92,287.77l-1.94-2.02h18.8c6.35,0,11.17-1.4,14.46-4.21,3.29-2.81,4.93-6.74,4.93-11.79s-1.64-9.06-4.93-11.84-8.11-4.17-14.46-4.17h-18.8l1.94-2.11v36.14h0ZM1859.6,308.83l-15.35-21.4h4.89l15.35,21.4h-4.89Z"/>
      <path class="st0" d="M1879.33,308.83v-58.96h39.46v3.87h-35.16v51.21h36.42v3.87h-40.72ZM1883.12,280.78v-3.79h31.96v3.79h-31.96Z"/>
    </g>
    <g>
      <path class="st0" d="M483.49,411.59v-58.96h21.16c7.42,0,13.24,1.74,17.45,5.22,4.22,3.48,6.32,8.37,6.32,14.66,0,4.1-.96,7.62-2.87,10.57-1.91,2.95-4.64,5.22-8.18,6.82s-7.79,2.4-12.73,2.4h-18.8l1.94-2.02v21.31h-4.3,0ZM487.79,390.53l-1.94-2.02h18.8c6.35,0,11.17-1.4,14.46-4.21,3.29-2.81,4.93-6.74,4.93-11.79s-1.64-9.06-4.93-11.84-8.11-4.17-14.46-4.17h-18.8l1.94-2.11v36.14h0ZM524.47,411.59l-15.35-21.4h4.89l15.35,21.4h-4.89,0Z"/>
      <path class="st0" d="M544.2,411.59v-58.96h39.46v3.87h-35.16v51.21h36.42v3.87h-40.72ZM547.99,383.54v-3.79h31.96v3.79h-31.96Z"/>
      <path class="st0" d="M625.31,412.01c-4.38,0-8.45-.74-12.18-2.23-3.74-1.49-6.99-3.58-9.74-6.28-2.76-2.7-4.89-5.85-6.41-9.48-1.52-3.62-2.28-7.59-2.28-11.92s.76-8.3,2.28-11.92,3.67-6.78,6.45-9.48,6.03-4.79,9.74-6.28c3.71-1.49,7.76-2.23,12.14-2.23s8.05.67,11.68,2.02,6.73,3.4,9.32,6.15l-2.7,2.78c-2.53-2.47-5.33-4.25-8.39-5.35s-6.31-1.64-9.74-1.64c-3.77,0-7.27.65-10.5,1.94-3.23,1.29-6.04,3.12-8.43,5.48s-4.24,5.11-5.56,8.25c-1.32,3.15-1.98,6.57-1.98,10.28s.66,7.13,1.98,10.28,3.17,5.9,5.56,8.26,5.2,4.18,8.43,5.47c3.23,1.29,6.73,1.94,10.5,1.94,3.43,0,6.67-.55,9.74-1.64,3.06-1.09,5.86-2.91,8.39-5.43l2.7,2.78c-2.59,2.75-5.69,4.82-9.32,6.19-3.63,1.38-7.52,2.06-11.68,2.06h0Z"/>
      <path class="st0" d="M681.97,412.01c-4.38,0-8.45-.74-12.18-2.23-3.74-1.49-7-3.59-9.78-6.32-2.78-2.72-4.93-5.9-6.45-9.52-1.52-3.62-2.28-7.57-2.28-11.84s.76-8.21,2.28-11.84c1.52-3.62,3.67-6.79,6.45-9.52,2.78-2.72,6.04-4.83,9.78-6.32,3.74-1.49,7.8-2.23,12.18-2.23s8.44.75,12.18,2.23c3.74,1.49,6.98,3.58,9.74,6.28,2.75,2.7,4.9,5.85,6.45,9.48,1.54,3.62,2.32,7.6,2.32,11.92s-.77,8.3-2.32,11.92-3.7,6.78-6.45,9.48-6,4.79-9.74,6.28-7.8,2.23-12.18,2.23h0ZM681.97,408.05c3.76,0,7.25-.64,10.46-1.94,3.2-1.29,5.99-3.12,8.35-5.47,2.36-2.36,4.2-5.11,5.52-8.26,1.32-3.14,1.98-6.57,1.98-10.28s-.66-7.2-1.98-10.32c-1.32-3.12-3.16-5.85-5.52-8.21-2.36-2.36-5.14-4.18-8.35-5.48-3.2-1.29-6.69-1.94-10.46-1.94s-7.25.65-10.46,1.94c-3.2,1.29-6,3.12-8.39,5.48s-4.24,5.1-5.56,8.21c-1.32,3.12-1.98,6.56-1.98,10.32s.66,7.13,1.98,10.28,3.17,5.9,5.56,8.26,5.19,4.18,8.39,5.47c3.2,1.29,6.69,1.94,10.46,1.94Z"/>
      <path class="st0" d="M727.58,411.59v-58.96h3.63l27.4,47.26h-1.94l27.32-47.26h3.54l.08,58.96h-4.22l-.08-52.48h1.18l-25.88,44.64h-2.11l-25.97-44.64h1.26v52.48h-4.22,0Z"/>
      <path class="st0" d="M808.19,411.59v-58.96h3.63l27.4,47.26h-1.94l27.32-47.26h3.54l.08,58.96h-4.22l-.08-52.48h1.18l-25.88,44.64h-2.11l-25.97-44.64h1.26v52.48h-4.22,0Z"/>
      <path class="st0" d="M888.79,411.59v-58.96h39.46v3.87h-35.16v51.21h36.42v3.87h-40.72ZM892.59,383.54v-3.79h31.96v3.79h-31.96Z"/>
      <path class="st0" d="M945.2,411.59v-58.96h3.63l42.07,53.66h-1.94v-53.66h4.3v58.96h-3.54l-42.16-53.66h1.94v53.66h-4.3Z"/>
      <path class="st0" d="M1013.83,411.59v-58.96h23.36c6.24,0,11.72,1.26,16.44,3.79s8.39,6.01,11,10.45,3.92,9.52,3.92,15.25-1.31,10.81-3.92,15.25-6.28,7.92-11,10.45-10.2,3.79-16.44,3.79h-23.36v-.02ZM1018.13,407.71h18.72c5.56,0,10.4-1.09,14.5-3.29,4.1-2.19,7.28-5.21,9.53-9.06,2.25-3.85,3.37-8.27,3.37-13.27s-1.13-9.42-3.37-13.27c-2.25-3.85-5.43-6.87-9.53-9.06s-8.94-3.29-14.5-3.29h-18.72v51.24Z"/>
      <path class="st0" d="M1072.77,411.59l27.15-58.96h4.3l27.15,58.96h-4.64l-25.63-56.27h1.86l-25.55,56.27h-4.64ZM1082.72,394.99l1.43-3.62h35.33l1.43,3.62h-38.2,0Z"/>
      <path class="st0" d="M1150.42,411.59v-55.09h-21.25v-3.87h46.79v3.87h-21.25v55.09h-4.3.01Z"/>
      <path class="st0" d="M1186.59,411.59v-58.96h4.3v58.96h-4.3Z"/>
      <path class="st0" d="M1236.51,412.01c-4.39,0-8.45-.74-12.18-2.23-3.74-1.49-7-3.59-9.78-6.32-2.78-2.72-4.93-5.9-6.45-9.52-1.52-3.62-2.28-7.57-2.28-11.84s.76-8.21,2.28-11.84c1.52-3.62,3.67-6.79,6.45-9.52,2.78-2.72,6.04-4.83,9.78-6.32s7.8-2.23,12.18-2.23,8.44.75,12.18,2.23c3.74,1.49,6.98,3.58,9.74,6.28,2.75,2.7,4.9,5.85,6.45,9.48,1.55,3.62,2.32,7.6,2.32,11.92s-.77,8.3-2.32,11.92c-1.55,3.62-3.7,6.78-6.45,9.48-2.76,2.7-6,4.79-9.74,6.28s-7.8,2.23-12.18,2.23h0ZM1236.51,408.05c3.76,0,7.25-.64,10.46-1.94,3.2-1.29,5.99-3.12,8.35-5.47,2.36-2.36,4.2-5.11,5.52-8.26,1.32-3.14,1.98-6.57,1.98-10.28s-.66-7.2-1.98-10.32c-1.32-3.12-3.16-5.85-5.52-8.21s-5.14-4.18-8.35-5.48c-3.2-1.29-6.69-1.94-10.46-1.94s-7.25.65-10.46,1.94c-3.2,1.29-6,3.12-8.39,5.48s-4.24,5.1-5.57,8.21c-1.32,3.12-1.98,6.56-1.98,10.32s.66,7.13,1.98,10.28,3.18,5.9,5.57,8.26c2.39,2.36,5.19,4.18,8.39,5.47,3.2,1.29,6.69,1.94,10.46,1.94Z"/>
      <path class="st0" d="M1282.12,411.59v-58.96h3.63l42.07,53.66h-1.94v-53.66h4.3v58.96h-3.54l-42.16-53.66h1.94v53.66h-4.3,0Z"/>
      <path class="st0" d="M1387.94,412.01c-4.39,0-8.53-.74-12.44-2.23-3.91-1.49-6.93-3.41-9.06-5.77l1.94-3.2c2.02,2.08,4.79,3.83,8.3,5.26s7.24,2.15,11.17,2.15,7.15-.52,9.65-1.56,4.35-2.43,5.56-4.17c1.21-1.74,1.81-3.68,1.81-5.81,0-2.53-.67-4.55-2.02-6.07s-3.12-2.72-5.31-3.62c-2.19-.9-4.58-1.66-7.17-2.27-2.59-.62-5.2-1.28-7.84-1.98s-5.06-1.61-7.25-2.74c-2.19-1.12-3.95-2.65-5.27-4.59s-1.98-4.45-1.98-7.54c0-2.81.73-5.39,2.19-7.75s3.74-4.27,6.83-5.73c3.09-1.46,7.05-2.19,11.89-2.19,3.26,0,6.48.48,9.65,1.43,3.18.96,5.89,2.25,8.14,3.87l-1.6,3.45c-2.47-1.69-5.13-2.93-7.97-3.75-2.84-.81-5.58-1.22-8.22-1.22-3.77,0-6.89.53-9.36,1.6s-4.3,2.48-5.48,4.25c-1.18,1.77-1.77,3.75-1.77,5.94,0,2.53.66,4.55,1.98,6.06,1.32,1.52,3.08,2.73,5.27,3.62,2.19.9,4.61,1.66,7.25,2.27,2.64.62,5.25,1.28,7.84,1.98,2.58.7,4.97,1.62,7.17,2.74,2.19,1.12,3.96,2.64,5.31,4.55,1.35,1.91,2.02,4.38,2.02,7.41,0,2.75-.76,5.32-2.28,7.71s-3.84,4.3-6.96,5.73-7.13,2.15-12.02,2.15l.03.02Z"/>
      <path class="st0" d="M1436.42,411.59v-21.4l1.01,2.78-24.79-40.35h4.72l22.51,36.64h-2.36l22.51-36.64h4.47l-24.79,40.35,1.01-2.78v21.4h-4.3.01Z"/>
      <path class="st0" d="M1489.46,412.01c-4.39,0-8.53-.74-12.44-2.23-3.91-1.49-6.93-3.41-9.06-5.77l1.94-3.2c2.02,2.08,4.79,3.83,8.3,5.26s7.24,2.15,11.17,2.15,7.15-.52,9.65-1.56,4.35-2.43,5.56-4.17c1.21-1.74,1.81-3.68,1.81-5.81,0-2.53-.68-4.55-2.02-6.07s-3.12-2.72-5.31-3.62c-2.19-.9-4.58-1.66-7.17-2.27-2.59-.62-5.2-1.28-7.84-1.98s-5.06-1.61-7.25-2.74c-2.19-1.12-3.95-2.65-5.27-4.59-1.32-1.94-1.98-4.45-1.98-7.54,0-2.81.73-5.39,2.19-7.75s3.74-4.27,6.83-5.73c3.09-1.46,7.05-2.19,11.89-2.19,3.26,0,6.48.48,9.65,1.43,3.18.96,5.89,2.25,8.14,3.87l-1.6,3.45c-2.47-1.69-5.13-2.93-7.97-3.75-2.84-.81-5.58-1.22-8.22-1.22-3.77,0-6.89.53-9.36,1.6s-4.3,2.48-5.48,4.25c-1.18,1.77-1.77,3.75-1.77,5.94,0,2.53.66,4.55,1.98,6.06,1.32,1.52,3.08,2.73,5.27,3.62,2.19.9,4.61,1.66,7.25,2.27,2.64.62,5.26,1.28,7.84,1.98,2.59.7,4.98,1.62,7.17,2.74,2.19,1.12,3.96,2.64,5.31,4.55,1.35,1.91,2.02,4.38,2.02,7.41,0,2.75-.76,5.32-2.28,7.71s-3.84,4.3-6.96,5.73-7.12,2.15-12.01,2.15l.02.02Z"/>
      <path class="st0" d="M1535.74,411.59v-55.09h-21.25v-3.87h46.79v3.87h-21.25v55.09h-4.3.01Z"/>
      <path class="st0" d="M1571.92,411.59v-58.96h39.46v3.87h-35.16v51.21h36.42v3.87h-40.72ZM1575.71,383.54v-3.79h31.96v3.79h-31.96Z"/>
      <path class="st0" d="M1628.32,411.59v-58.96h3.63l27.4,47.26h-1.94l27.32-47.26h3.54l.08,58.96h-4.22l-.08-52.48h1.18l-25.88,44.64h-2.11l-25.97-44.64h1.26v52.48h-4.22,0Z"/>
    </g>
  </g>
</svg>